{
  "accessors": [
    {
      "bufferView": 2,
      "componentType": 5126,
      "count": 65532,
      "max": [
        0.24362507462501526,
        0.20600199699401855,
        0.6902890205383301
      ],
      "min": [
        -0.21532100439071655,
        -0.26808398962020874,
        -0.7365356683731079
      ],
      "type": "VEC3"
    },
    {
      "bufferView": 2,
      "byteOffset": 786384,
      "componentType": 5126,
      "count": 65532,
      "max": [
        0.999987781047821,
        0.999994695186615,
        0.9999982714653015
      ],
      "min": [
        -0.9999944567680359,
        -0.9999879002571106,
        -0.9997541308403015
      ],
      "type": "VEC3"
    },
    {
      "bufferView": 1,
      "componentType": 5126,
      "count": 65532,
      "max": [
        0.9981822371482849,
        0.9934890270233154
      ],
      "min": [
        8.178980351658538e-06,
        0.002036989899352193
      ],
      "type": "VEC2"
    },
    {
      "bufferView": 0,
      "componentType": 5125,
      "count": 365715,
      "type": "SCALAR"
    },
    {
      "bufferView": 2,
      "byteOffset": 1572768,
      "componentType": 5126,
      "count": 65516,
      "max": [
        0.241580992937088,
        0.22095000743865967,
        0.6591230034828186
      ],
      "min": [
        -0.24001100659370422,
        -0.26808398962020874,
        -0.7249770164489746
      ],
      "type": "VEC3"
    },
    {
      "bufferView": 2,
      "byteOffset": 2358960,
      "componentType": 5126,
      "count": 65516,
      "max": [
        0.9999801516532898,
        0.9999994039535522,
        0.9999982714653015
      ],
      "min": [
        -0.99998939037323,
        -0.9999854564666748,
        -0.9997541308403015
      ],
      "type": "VEC3"
    },
    {
      "bufferView": 1,
      "byteOffset": 524256,
      "componentType": 5126,
      "count": 65516,
      "max": [
        0.9999989867210388,
        0.9944980144500732
      ],
      "min": [
        0.005616010166704655,
        1.6093299564090557e-05
      ],
      "type": "VEC2"
    },
    {
      "bufferView": 0,
      "byteOffset": 1462860,
      "componentType": 5125,
      "count": 361719,
      "type": "SCALAR"
    },
    {
      "bufferView": 2,
      "byteOffset": 3145152,
      "componentType": 5126,
      "count": 1801,
      "max": [
        0.24362507462501526,
        0.17712917923927307,
        -0.6910568475723267
      ],
      "min": [
        -0.16008004546165466,
        -0.22580260038375854,
        -0.7365356683731079
      ],
      "type": "VEC3"
    },
    {
      "bufferView": 2,
      "byteOffset": 3166764,
      "componentType": 5126,
      "count": 1801,
      "max": [
        0.9996308088302612,
        0.9787498116493225,
        0.13120722770690918
      ],
      "min": [
        -0.9976826310157776,
        -0.9956043362617493,
        -0.9993529915809631
      ],
      "type": "VEC3"
    },
    {
      "bufferView": 1,
      "byteOffset": 1048384,
      "componentType": 5126,
      "count": 1801,
      "max": [
        0.0,
        0.0
      ],
      "min": [
        0.0,
        0.0
      ],
      "type": "VEC2"
    },
    {
      "bufferView": 0,
      "byteOffset": 2909736,
      "componentType": 5125,
      "count": 9876,
      "type": "SCALAR"
    }
  ],
  "asset": {
    "extras": {
      "author": "Fabian Mohr (https://sketchfab.com/fabianmohr)",
      "license": "SKETCHFAB Standard (https://sketchfab.com/licenses)",
      "source": "https://sketchfab.com/3d-models/hebe-goddess-of-youth-d1146badd25143bcb7f3f3fb83ea0bb8",
      "title": "Hebe, Goddess of Youth"
    },
    "generator": "Sketchfab-16.52.0",
    "version": "2.0"
  },
  "bufferViews": [
    {
      "buffer": 0,
      "byteLength": 2949240,
      "name": "floatBufferViews",
      "target": 34963
    },
    {
      "buffer": 0,
      "byteLength": 1062792,
      "byteOffset": 2949240,
      "byteStride": 8,
      "name": "floatBufferViews",
      "target": 34962
    },
    {
      "buffer": 0,
      "byteLength": 3188376,
      "byteOffset": 4012032,
      "byteStride": 12,
      "name": "floatBufferViews",
      "target": 34962
    }
  ],
  "buffers": [
    {
      "byteLength": 7200408,
      "uri": "scene.bin"
    }
  ],
  "extensionsUsed": [
    "KHR_materials_unlit"
  ],
  "images": [
    {
      "uri": "textures/material_1_baseColor.png"
    }
  ],
  "materials": [
    {
      "doubleSided": true,
      "extensions": {
        "KHR_materials_unlit": {}
      },
      "name": "material_1",
      "pbrMetallicRoughness": {
        "baseColorTexture": {
          "index": 0
        },
        "metallicFactor": 0.0
      }
    }
  ],
  "meshes": [
    {
      "name": "Object_0",
      "primitives": [
        {
          "attributes": {
            "NORMAL": 1,
            "POSITION": 0,
            "TEXCOORD_0": 2
          },
          "indices": 3,
          "material": 0,
          "mode": 4
        }
      ]
    },
    {
      "name": "Object_1",
      "primitives": [
        {
          "attributes": {
            "NORMAL": 5,
            "POSITION": 4,
            "TEXCOORD_0": 6
          },
          "indices": 7,
          "material": 0,
          "mode": 4
        }
      ]
    },
    {
      "name": "Object_2",
      "primitives": [
        {
          "attributes": {
            "NORMAL": 9,
            "POSITION": 8,
            "TEXCOORD_0": 10
          },
          "indices": 11,
          "material": 0,
          "mode": 4
        }
      ]
    }
  ],
  "nodes": [
    {
      "children": [
        1
      ],
      "matrix": [
        0.9963014721870422,
        -0.0859219878911972,
        -0.0009001662838272941,
        0.0,
        0.005390159320086241,
        0.07294964045286201,
        -0.9973210692405701,
        0.0,
        0.08575747162103653,
        0.9936275482177734,
        0.07314296811819099,
        0.0,
        0.0,
        0.0,
        0.0,
        1.0
      ],
      "name": "Sketchfab_model"
    },
    {
      "children": [
        2,
        3,
        4
      ],
      "name": "model-hebe-meshmixer.obj.cleaner.materialmerger.gles"
    },
    {
      "mesh": 0,
      "name": "Object_2"
    },
    {
      "mesh": 1,
      "name": "Object_3"
    },
    {
      "mesh": 2,
      "name": "Object_4"
    }
  ],
  "samplers": [
    {
      "magFilter": 9729,
      "minFilter": 9987,
      "wrapS": 10497,
      "wrapT": 10497
    }
  ],
  "scene": 0,
  "scenes": [
    {
      "name": "Sketchfab_Scene",
      "nodes": [
        0
      ]
    }
  ],
  "textures": [
    {
      "sampler": 0,
      "source": 0
    }
  ]
}
